<svg width="48" height="48" viewBox="0 0 38 38" fill="none" xmlns="http://www.w3.org/2000/svg">
<path d="M34.5515 11.7658C34.4059 11.5553 34.2114 11.3833 33.9847 11.2644C33.7581 11.1456 33.506 11.0834 33.25 11.0833H11.6106L9.78344 6.69751C9.54386 6.11994 9.13818 5.62652 8.61783 5.27981C8.09747 4.93309 7.48589 4.7487 6.8606 4.75001H3.16669V7.91667H6.8606L14.3719 25.9429C14.4922 26.2313 14.6952 26.4777 14.9553 26.651C15.2153 26.8243 15.5209 26.9167 15.8334 26.9167H28.5C29.1603 26.9167 29.7509 26.5066 29.9836 25.8907L34.7336 13.224C34.8234 12.9843 34.8537 12.7264 34.822 12.4725C34.7903 12.2185 34.6975 11.976 34.5515 11.7658ZM27.4028 23.75H16.8894L12.9311 14.25H30.9653L27.4028 23.75Z" fill="#429158"/>
<path d="M16.625 33.25C17.9367 33.25 19 32.1867 19 30.875C19 29.5633 17.9367 28.5 16.625 28.5C15.3133 28.5 14.25 29.5633 14.25 30.875C14.25 32.1867 15.3133 33.25 16.625 33.25Z" fill="#429158"/>
<path d="M27.7083 33.25C29.02 33.25 30.0833 32.1867 30.0833 30.875C30.0833 29.5633 29.02 28.5 27.7083 28.5C26.3966 28.5 25.3333 29.5633 25.3333 30.875C25.3333 32.1867 26.3966 33.25 27.7083 33.25Z" fill="#429158"/>
</svg>
