<svg width="48" height="48" viewBox="0 0 38 38" fill="none" xmlns="http://www.w3.org/2000/svg">
<path d="M7.91667 34.8333H30.0833C31.8298 34.8333 33.25 33.4131 33.25 31.6667V14.25C33.25 13.8301 33.0832 13.4273 32.7863 13.1304C32.4893 12.8335 32.0866 12.6667 31.6667 12.6667H26.9167V11.0833C26.9167 6.71807 23.3652 3.16666 19 3.16666C14.6348 3.16666 11.0833 6.71807 11.0833 11.0833V12.6667H6.33333C5.91341 12.6667 5.51068 12.8335 5.21375 13.1304C4.91681 13.4273 4.75 13.8301 4.75 14.25V31.6667C4.75 33.4131 6.17025 34.8333 7.91667 34.8333ZM14.25 11.0833C14.25 8.46449 16.3812 6.33332 19 6.33332C21.6188 6.33332 23.75 8.46449 23.75 11.0833V12.6667H14.25V11.0833ZM7.91667 15.8333H11.0833V19H14.25V15.8333H23.75V19H26.9167V15.8333H30.0833L30.0865 31.6667H7.91667V15.8333Z" fill="white"/>
</svg>
